# xmcd
#
# Track frame offsets:
#	150
#	11445
#	22812
#	37040
#	53682
#	78287
#	89250
#	102492
#	114157
#	123705
#	136797
#	153817
#	165267
#	183327
#	195805
#	208707
#	221372
#	232000
#	244890
#	254152
#
# Disc length: 3539 seconds
#
# Revision: 0
# Processed by: cddbd v1.5.1PL0 Copyright (c) Steve Scherf et al.
# Submitted via: audiograbber 1.83.01
#
DISCID=fb0dd114
DTITLE=Oldies - the greatest
DYEAR=1900
DGENRE=Pop
TTITLE0=Sealend With A Kiss
TTITLE1=The Ding Dong Song
TTITLE2=Love Story
TTITLE3=When A Man Love A Women
TTITLE4=You're My Everything
TTITLE5=Can't Help Falling In Love
TTITLE6=Tennesse Waltz
TTITLE7=I Love You Because
TTITLE8=Wooden Heart
TTITLE9=I Can't Stop Loving You
TTITLE10=Without You
TTITLE11=Help Me Make It Through The Night
TTITLE12=Kiss Me Goodbye
TTITLE13=Evergreen Tree
TTITLE14=Sukiyaki
TTITLE15=To Sir With Love
TTITLE16=Sixteen Tons
TTITLE17=Cha Cha Cha
TTITLE18=My Home Town
TTITLE19=Goodbye
EXTD=
EXTT0=
EXTT1=
EXTT2=
EXTT3=
EXTT4=
EXTT5=
EXTT6=
EXTT7=
EXTT8=
EXTT9=
EXTT10=
EXTT11=
EXTT12=
EXTT13=
EXTT14=
EXTT15=
EXTT16=
EXTT17=
EXTT18=
EXTT19=
PLAYORDER=
